# xmcd
#
# Track frame offsets: 
#        150
#        18855
#        44540
#        62900
#        92010
#        116833
#        213385
#
# Disc length: 3176 seconds
#
# Revision: 0
# Processed by: cddbd v1.5.2PL0 Copyright (c) Steve Scherf et al.
# Submitted via: ExactAudioCopyFreeDBPlugin 1.0
#
DISCID=5e0c6607
DTITLE=Bedlam - Live In Binghampton 1974
DYEAR=2013
DGENRE=Blues
TTITLE0=I Believe In You
TTITLE1=The Beast
TTITLE2=The Great Game
TTITLE3=Set Me Free
TTITLE4=Interview
TTITLE5=The Fool
TTITLE6=The Beast
EXTD=
EXTT0=
EXTT1=
EXTT2=
EXTT3=
EXTT4=
EXTT5=
EXTT6=
PLAYORDER=
